<?xml version="1.0" encoding="UTF-8" standalone="no"?> <!-- Created with Vectornator for iOS (http://vectornator.io/) --><!DOCTYPE svg PUBLIC "-//W3C//DTD SVG 1.1//EN" "http://www.w3.org/Graphics/SVG/1.1/DTD/svg11.dtd">
<svg style="fill-rule:evenodd;clip-rule:evenodd;stroke-linecap:round;stroke-linejoin:round;" xmlns:vectornator="http://vectornator.io" xmlns:xlink="http://www.w3.org/1999/xlink" xmlns="http://www.w3.org/2000/svg" xml:space="preserve" version="1.1" viewBox="0 0 437.749 439.6">
<metadata>
<vectornator:setting key="RulersVisible" value="1"/>
<vectornator:setting key="Units" value="Centimeters"/>
<vectornator:setting key="DynamicGuides" value="1"/>
<vectornator:setting key="GuidesVisible" value="1"/>
<vectornator:setting key="CMYKEnabledKey" value="0"/>
<vectornator:setting key="SnapToGuides" value="1"/>
<vectornator:setting key="GridSpacing" value="36"/>
</metadata>
<defs>
<linearGradient y1="90.8949" id="LinearGradient" x1="128.632" y2="422.372" x2="384.02" gradientUnits="userSpaceOnUse" gradientTransform="matrix(1 0 0 1 -26.6238 -30.3317)">
<stop stop-color="#ff5e4e" offset="0"/>
<stop stop-color="#ff5c6d" offset="0.249"/>
<stop stop-color="#ff658c" offset="0.3765"/>
<stop stop-color="#ca7fb2" offset="0.497"/>
<stop stop-color="#9d6cff" offset="0.6267"/>
<stop stop-opacity="0.9176" stop-color="#2cbcfc" offset="0.7628"/>
<stop stop-color="#00c7ff" offset="1"/>
</linearGradient>
</defs>
<g id="Untitled" vectornator:layerName="Untitled">
<path d="M95.4697+392.113C0.702724+323.637-20.8713+190.981+47.2817+95.8135C115.431+0.648508+247.509-20.9895+342.278+47.4865C437.045+115.96+458.62+248.617+390.471+343.786C322.317+438.951+190.243+460.589+95.4697+392.113Z" opacity="0" fill="#000000"/>
<path d="M304.002+329.021C317.386+325.096+326.836+315.576+330.703+302.129L331.844+298.177L331.994+192.162C332.105+112.769+331.998+85.6533+331.557+84.1733C331.093+82.6043+330.357+81.2883+329.394+80.2483C327.977+79.3753+326.274+78.9153+324.344+78.9183C323.014+78.9183+318.393+79.5593+314.083+80.3433C295.014+83.8153+182.615+106.201+180.695+106.911C177.725+108.009+174.783+110.618+173.387+113.387L172.204+115.733C172.204+115.733+171.645+281.904+170.784+283.774C169.475+286.621+166.568+289.318+163.888+290.177C162.618+290.586+157.599+291.712+152.727+292.68C130.175+297.168+121.8+300.401+114.715+307.357C110.691+311.306+107.711+316.698+106.423+322.355C105.191+327.763+105.603+335.855+107.358+340.776C109.197+345.922+112.157+350.317+116.027+353.775C119.545+356.486+123.698+358.504+128.367+359.702C138.69+362.345+158.017+359.405+167.897+353.69C172.029+351.299+177.344+346.287+180.108+342.164C181.204+340.531+182.848+337.247+183.769+334.86C186.987+326.502+187.088+177.639+187.499+175.764C188.197+172.582+190.372+170.253+193.369+169.462C196.07+168.753+304.299+147.355+307.346+146.928C310.026+146.556+312.556+147.419+313.938+149.121C314.758+149.561+315.45+150.154+315.935+150.884C316.814+152.193+316.867+154.781+316.998+201.912C317.148+256.159+317.215+254.887+314.266+258.311C312.12+260.8+309.444+261.765+298.443+264.009C281.706+267.426+275.979+269.049+269.568+272.176C261.565+276.087+257.12+280.37+253.685+287.484C251.256+292.517+250.349+296.289+250.356+301.297C250.37+310.256+253.461+317.253+260.431+324.104C261.074+324.735+261.704+325.322+262.34+325.874C265.851+328.589+269.432+330.226+273.934+331.263C280.724+332.826+294.544+331.797+304.002+329.021Z" opacity="1" fill="url(#LinearGradient)"/>
</g>
</svg>
