<?xml version="1.0" encoding="UTF-8" standalone="no"?> <!-- Created with Vectornator for iOS (http://vectornator.io/) --><!DOCTYPE svg PUBLIC "-//W3C//DTD SVG 1.1//EN" "http://www.w3.org/Graphics/SVG/1.1/DTD/svg11.dtd">
<svg style="fill-rule:evenodd;clip-rule:evenodd;stroke-linecap:round;stroke-linejoin:round;" xmlns:vectornator="http://vectornator.io" xmlns:xlink="http://www.w3.org/1999/xlink" xmlns="http://www.w3.org/2000/svg" xml:space="preserve" version="1.1" viewBox="0 0 18 18">
<metadata>
<vectornator:setting key="DynamicGuides" value="1"/>
<vectornator:setting key="Units" value="Points"/>
<vectornator:setting key="GuidesVisible" value="1"/>
<vectornator:setting key="RulersVisible" value="1"/>
<vectornator:setting key="SnapToGuides" value="1"/>
<vectornator:setting key="GridSpacing" value="36"/>
</metadata>
<defs/>
<g id="Untitled" vectornator:layerName="Untitled">
<g opacity="1">
<path d="M0+0L18+0L18+18L0+18L0+0Z" opacity="1" fill="none"/>
<path d="M10.625+4.5L2.375+4.5C2.16789+4.5+2+4.66789+2+4.875C2+5.08211+2.16789+5.25+2.375+5.25L10.625+5.25C10.8321+5.25+11+5.08211+11+4.875C11+4.66789+10.8321+4.5+10.625+4.5ZM10.625+7.5L2.375+7.5C2.16789+7.5+2+7.66789+2+7.875C2+8.08211+2.16789+8.25+2.375+8.25L10.625+8.25C10.8321+8.25+11+8.08211+11+7.875C11+7.66789+10.8321+7.5+10.625+7.5ZM2.375+11.25C2.16789+11.25+2+11.0821+2+10.875C2+10.6679+2.16789+10.5+2.375+10.5L8.125+10.5C8.33211+10.5+8.5+10.6679+8.5+10.875C8.5+11.0821+8.33211+11.25+8.125+11.25L2.375+11.25ZM13.5+11.5666C13.5+13.8228+13.0626+14.2584+11.3128+14.4877C10.4787+14.5971+9.5+14.2185+9.5+12.9069C9.5+12.2662+9.90091+11.6578+10.7306+11.4988C11.3642+11.3773+10.6852+11.5079+12.1186+11.2417C12.4666+11.1771+12.506+11.0526+12.506+10.7873C12.506+10.6541+12.5054+9.48977+12.5012+8.69033L12.5012+6.53142C12.5012+6.53142+12.4985+5.50229+12.5012+4.98772C12.5045+4.37229+12.841+4.14611+13.8331+3.94574C13.8331+3.94574+15.3447+3.65875+16.1757+3.50803C16.3596+3.47467+16.5+3.54312+16.5+3.75404C16.5+3.75404+16.4947+5.06509+16.5+5.78121C16.5016+5.98916+16.4158+6.08331+16.205+6.12072C15.3642+6.26996+13.7726+6.5509+13.7726+6.5509C13.5856+6.59681+13.5+6.7284+13.5+6.91755L13.5+11.5666Z" opacity="1" fill="#cdd1d7"/>
</g>
</g>
</svg>
