<?xml version="1.0" encoding="UTF-8" standalone="no"?> <!-- Created with Vectornator for iOS (http://vectornator.io/) --><!DOCTYPE svg PUBLIC "-//W3C//DTD SVG 1.1//EN" "http://www.w3.org/Graphics/SVG/1.1/DTD/svg11.dtd">
<svg style="fill-rule:evenodd;clip-rule:evenodd;stroke-linecap:round;stroke-linejoin:round;" xmlns:vectornator="http://vectornator.io" xmlns:xlink="http://www.w3.org/1999/xlink" xmlns="http://www.w3.org/2000/svg" xml:space="preserve" version="1.1" viewBox="0 0 43 43">
<metadata>
<vectornator:setting key="RulersVisible" value="1"/>
<vectornator:setting key="Units" value="Pixels"/>
<vectornator:setting key="DynamicGuides" value="1"/>
<vectornator:setting key="GuidesVisible" value="1"/>
<vectornator:setting key="CMYKEnabledKey" value="0"/>
<vectornator:setting key="DimensionsVisible" value="1"/>
<vectornator:setting key="SnapToGuides" value="1"/>
<vectornator:setting key="GridSpacing" value="36"/>
</metadata>
<defs/>
<g id="Logo_Composit_Black_RU" vectornator:layerName="Logo_Composit_Black_RU">
<path d="M42.145+5.5488C41.121+3.13481+39.0748+1.30237+36.5846+0.5566C34.8936+0.1338+33.1517-0.0496882+31.3923+0.0118061L11.5903+0.011498C9.84841-0.0496877+8.10652+0.1338+6.43762+0.550543C3.9193+1.30418+1.86922+3.14372+0.861276+5.53045C0.210899+7.47898-0.0753247+9.53062+0.0174191+11.6053L0.0169147+31.4171C-0.0753353+33.4694+0.210888+35.521+0.847718+37.4336C1.86922+39.8563+3.91931+41.6958+6.41556+42.4434C8.10652+42.8662+9.84841+43.0497+11.6079+42.9882L31.4097+42.9885C33.1516+43.0497+34.8935+42.8662+36.5624+42.4495C39.0807+41.6959+41.1308+39.8563+42.1388+37.4696C42.7892+35.521+43.0754+33.4694+42.9826+31.3947L42.9831+11.5828C43.0751+9.53706+42.791+7.49187+42.145+5.5488Z" opacity="1" fill="none"/>
<path d="M7.51332+24.8774C7.51332+17.3771+13.601+11.2969+21.1105+11.2969C28.62+11.2969+34.7077+17.3771+34.7077+24.8774C34.7077+32.3778+28.62+38.458+21.1105+38.458C13.601+38.458+7.51332+32.3778+7.51332+24.8774Z" opacity="1" fill="#ffcc00"/>
<path d="M27.9191+11.0346L27.9192+23.7394L27.8892+23.7494C27.8892+23.7548+27.8892+23.7602+27.8892+23.7656C27.8892+25.0083+27.799+26.1674+27.6305+26.759C26.8202+29.6041+24.199+31.6677+21.0906+31.6677C17.3358+31.6677+14.3319+28.6376+14.3319+24.8874C14.3319+21.1372+17.3358+18.1071+21.0906+18.1071C22.8597+18.1071+24.4711+18.782+25.6805+19.8881C26.0757+20.2495+26.4279+20.6569+26.7288+21.1019C26.6453+20.7037+26.5631+20.2027+26.5631+19.7745L26.5631+9.92824L26.5631+4.50001L35.4122+7.20815L35.4122+13.3413L27.9191+11.0346Z" opacity="1" fill="#ff3333"/>
</g>
</svg>
